<svg fill="#000000" xmlns="http://www.w3.org/2000/svg" viewBox="0 0 24 24">
  <path d="M12 .5C5.6.5.5 5.6.5 12c0 5.1 3.3 9.4 7.9 10.9.6.1.8-.2.8-.6v-2.1c-3.2.7-3.9-1.5-3.9-1.5-.5-1.1-1.2-1.4-1.2-1.4-1-.7.1-.7.1-.7 1.1.1 1.6 1.1 1.6 1.1 1 .1.5 2.4.2 2.8-.3.2.2.3.4.2.8-.1 1.6-.7 2.4-1.4-2.7-.3-5.5-1.4-5.5-6.1 0-1.3.5-2.4 1.2-3.2-.1-.3-.5-1.5.1-3.1 0 0 1-.3 3.3 1.2a11.3 11.3 0 0 1 6 0c2.2-1.5 3.3-1.2 3.3-1.2.6 1.6.2 2.8.1 3.1.7.8 1.2 1.9 1.2 3.2 0 4.7-2.8 5.8-5.5 6.1.5.4 1 .9 1 2v3c0 .4.2.7.8.6A10.7 10.7 0 0 0 23.5 12C23.5 5.6 18.4.5 12 .5z"></path>
</svg>
